<?xml version="1.0" encoding="UTF-8"?>
<!DOCTYPE svg PUBLIC "-//W3C//DTD SVG 1.1//EN" "http://www.w3.org/Graphics/SVG/1.1/DTD/svg11.dtd">
<!-- Creator: CorelDRAW 2017 -->
<svg xmlns="http://www.w3.org/2000/svg" xml:space="preserve" width="1.27676in" height="0.734996in" version="1.1" style="shape-rendering:geometricPrecision; text-rendering:geometricPrecision; image-rendering:optimizeQuality; fill-rule:evenodd; clip-rule:evenodd"
viewBox="0 0 143 82"
 xmlns:xlink="http://www.w3.org/1999/xlink">
 <defs>
  <style type="text/css">
   <![CDATA[
    .fil0 {fill:url(#id0)}
   ]]>
  </style>
  <linearGradient id="id0" gradientUnits="userSpaceOnUse" x1="0" y1="41" x2="143" y2="41">
   <stop offset="0" style="stop-opacity:1; stop-color:#0C37AD"/>
   <stop offset="1" style="stop-opacity:1; stop-color:#3D6EEA"/>
  </linearGradient>
 </defs>
 <g id="Layer_x0020_1">
  <metadata id="CorelCorpID_0Corel-Layer"/>
  <path class="fil0" d="M26 43c0,2 0,3 -2,2 -3,0 -9,-1 -12,0 -1,1 -1,0 -3,1 -1,1 -3,1 -5,4l-1 1c0,1 0,0 0,1l-3 7c0,3 0,5 0,8 0,2 1,2 1,3 1,2 1,1 1,3 1,1 2,3 3,4l1 1c0,1 0,0 2,2 1,1 1,0 2,1 1,0 1,0 2,1 3,1 3,1 8,1l89 0c3,0 9,0 12,-1 0,0 1,-1 2,-1 1,0 1,0 2,-1 1,0 0,0 1,-1 3,-1 2,-1 4,-2 2,-1 2,-1 3,-2l1 -1c0,0 0,0 1,0 0,-1 3,-4 4,-5l3 -6c0,-1 0,-2 0,-2 0,-1 1,-1 1,-2 0,-2 0,-10 0,-11 0,-1 0,-1 -1,-2 -1,-4 0,-1 -1,-5 0,-1 -2,-5 -3,-6 -1,-1 -2,-2 -3,-3 -2,-2 -2,-2 -3,-3 -3,-3 -5,-3 -7,-4 -1,0 -1,-1 -2,-1 -1,0 -2,0 -3,0 -6,-2 -8,0 -11,-1l-2 -6 -1 0c0,-2 -2,-5 -4,-6 0,0 0,0 -1,-1 -1,-1 0,-1 -1,-1l-5 -3c-1,0 -1,0 -2,-1 -1,-1 -1,0 -2,-1 -1,0 -1,-1 -2,-1 -1,0 -2,0 -2,-1 -4,-2 -12,0 -16,2l-7 4c-1,1 -1,0 -2,2l0 0c0,0 0,0 0,0l-5 9c-1,1 -1,4 -1,5 -2,1 -8,-1 -12,0 -1,0 -1,1 -2,1 -2,1 -3,1 -6,2l-3 2c-1,1 -1,1 -2,2 -1,1 -1,1 -1,2l-2 3c-2,3 0,1 -1,4 -1,1 -1,3 -1,5zm46 -18c13,0 24,11 24,24 0,6 -2,12 -6,16l0 -9c0,-3 0,-5 -1,-7 -1,-2 -1,-4 -3,-6 -1,-2 -3,-3 -5,-4 -2,-1 -5,-1 -8,-1 -3,0 -6,0 -9,1 -3,0 -5,1 -7,2l0 28c-5,-4 -9,-11 -9,-19 0,-13 11,-24 24,-24zm7 48c-2,1 -5,1 -7,1 -2,0 -3,0 -5,0l0 -25c1,0 2,0 2,0 1,0 2,0 3,0 3,0 4,1 5,2 1,2 1,4 1,8l0 15z"/>
 </g>
</svg>
