<?xml version="1.0" encoding="UTF-8"?>
<!DOCTYPE svg PUBLIC "-//W3C//DTD SVG 1.1//EN" "http://www.w3.org/Graphics/SVG/1.1/DTD/svg11.dtd">
<!-- Creator: CorelDRAW 2017 -->
<svg xmlns="http://www.w3.org/2000/svg" xml:space="preserve" width="1.41946in" height="0.281102in" version="1.1" style="shape-rendering:geometricPrecision; text-rendering:geometricPrecision; image-rendering:optimizeQuality; fill-rule:evenodd; clip-rule:evenodd"
viewBox="0 0 598 118"
 xmlns:xlink="http://www.w3.org/1999/xlink">
 <defs>
  <style type="text/css">
   <![CDATA[
    .fil0 {fill:#FEFEFE}
    .fil1 {fill:#FEFEFE;fill-rule:nonzero}
   ]]>
  </style>
 </defs>
 <g id="Layer_x0020_1">
  <metadata id="CorelCorpID_0Corel-Layer"/>
  <path class="fil0" d="M37 61c0,3 0,4 -3,3 -5,-1 -13,-2 -17,1 -2,1 -2,0 -4,2 -1,1 -4,2 -7,6l-1 2c-1,1 0,0 -1,1l-4 10c-1,5 0,7 0,11 0,3 1,3 1,5 1,3 1,2 2,4 1,2 3,4 4,5l2 2c1,2 0,0 3,2 1,1 1,0 2,1 1,0 1,1 2,1 5,1 4,2 11,2l128 0c5,0 13,0 17,-2 0,0 2,-1 2,-1 1,0 2,0 3,-1 1,-1 0,-1 2,-1 5,-2 3,-1 6,-4 3,-2 2,-1 4,-3l2 -2c0,0 0,0 1,-1 1,-1 4,-6 5,-8l4 -8c0,-1 0,-2 1,-3 0,-1 1,-2 1,-3 0,-3 0,-14 0,-16 -1,-2 -1,-1 -1,-3 -1,-6 0,-1 -2,-7 -1,-1 -3,-7 -5,-8 -1,-1 -3,-3 -4,-4 -2,-3 -3,-3 -4,-4 -4,-4 -7,-4 -11,-6 -1,0 -1,-1 -3,-1 -1,0 -2,0 -4,-1 -8,-3 -11,0 -15,-2l-2 -8 -1 0c0,-3 -3,-7 -5,-9 0,0 -1,-1 -1,-1 -1,-1 -1,-1 -2,-2l-7 -5c-1,-1 -2,-1 -3,-1 -2,-1 -1,0 -3,-1 -1,0 -1,-1 -3,-1 -1,0 -2,0 -4,-1 -6,-2 -18,0 -24,2l-10 6c-2,2 -1,1 -3,3l0 0c0,0 0,0 -1,1l-7 13c-1,2 -1,5 -2,7 -3,1 -12,-1 -17,0 -1,0 -2,1 -3,1 -3,1 -5,2 -8,4l-4 3c-1,1 -1,1 -2,2 -1,1 -1,1 -2,2l-3 4c-3,4 -1,2 -2,5 -1,2 -2,5 -2,7zm66 -26c19,0 35,16 35,35 0,9 -3,17 -9,23l0 -13c0,-4 0,-7 -1,-11 -1,-3 -2,-6 -4,-8 -2,-2 -4,-4 -8,-5 -3,-1 -7,-2 -12,-2 -5,0 -9,0 -14,1 -4,1 -8,1 -11,2l0 40c-8,-6 -12,-16 -12,-27 0,-19 16,-35 35,-35zm10 68c-3,1 -7,2 -10,2 -2,0 -4,0 -6,-1l0 -36c1,0 2,0 3,0 1,0 3,0 4,0 4,0 6,1 8,3 1,2 2,6 2,11l0 22z"/>
  <path class="fil1" d="M230 46c3,-1 8,-2 13,-3 5,-1 11,-1 17,-1 6,0 11,1 15,2 4,2 7,4 9,7 2,3 4,6 5,10 1,4 1,8 1,13l0 40 -20 0 0 -38c0,-6 -1,-11 -3,-14 -2,-3 -5,-4 -10,-4 -1,0 -3,0 -5,0 -2,0 -3,0 -4,0l0 55 -20 0 0 -68zm140 66c-3,1 -8,2 -13,3 -5,1 -11,1 -17,1 -6,0 -11,-1 -15,-2 -4,-2 -7,-4 -9,-7 -2,-3 -4,-6 -5,-10 -1,-4 -1,-8 -1,-13l0 -39 20 0 0 37c0,6 1,11 3,14 2,3 5,4 10,4 1,0 3,0 5,0 2,0 3,0 4,0l0 -55 20 0 0 68zm64 -34c0,-13 -5,-19 -14,-19 -2,0 -4,0 -6,1 -2,1 -4,1 -5,2l0 36c1,0 2,0 4,0 2,0 3,0 5,0 5,0 10,-2 12,-6 3,-4 4,-9 4,-15zm20 1c0,6 -1,11 -2,15 -2,5 -4,8 -7,12 -3,3 -7,6 -12,7 -5,2 -10,3 -16,3 -2,0 -5,0 -8,0 -3,0 -5,-1 -8,-1 -3,0 -5,-1 -7,-1 -2,0 -4,-1 -6,-2l0 -99 20 -3 0 35c2,-1 5,-2 7,-2 2,-1 5,-1 8,-1 5,0 9,1 13,3 4,2 7,4 10,7 3,3 5,7 6,12 1,5 2,10 2,15zm12 1c0,-6 1,-12 3,-16 2,-5 4,-9 8,-12 3,-3 7,-6 11,-7 4,-2 8,-2 13,-2 10,0 18,3 24,9 6,6 9,15 9,27 0,1 0,2 0,4 0,1 0,3 0,4l-45 0c0,4 2,7 6,10 3,2 8,4 14,4 4,0 7,0 11,-1 4,-1 6,-2 9,-2l3 16c-1,1 -3,1 -4,2 -2,1 -4,1 -6,1 -2,0 -5,1 -7,1 -3,0 -5,0 -8,0 -6,0 -12,-1 -17,-3 -5,-2 -9,-4 -12,-8 -3,-3 -5,-7 -7,-12 -1,-4 -2,-9 -2,-15zm47 -8c0,-2 0,-3 -1,-5 0,-2 -1,-3 -2,-4 -1,-1 -2,-2 -4,-3 -2,-1 -4,-1 -6,-1 -2,0 -4,0 -6,1 -2,1 -3,2 -4,3 -1,1 -2,3 -2,4 -1,2 -1,3 -1,5l27 0zm55 28c4,0 6,0 8,-1 2,-1 2,-2 2,-4 0,-2 -1,-3 -3,-4 -2,-1 -5,-3 -9,-4 -3,-1 -6,-2 -9,-4 -3,-1 -5,-3 -7,-5 -2,-2 -3,-4 -4,-6 -1,-2 -1,-5 -1,-9 0,-7 2,-12 7,-16 5,-4 12,-6 20,-6 4,0 8,0 12,1 4,1 7,2 9,2l-3 16c-2,-1 -5,-2 -8,-2 -3,-1 -6,-1 -9,-1 -6,0 -9,2 -9,5 0,1 0,2 0,2 0,1 1,1 2,2 1,1 2,1 3,2 1,1 3,1 5,2 4,2 8,3 11,5 3,2 5,3 7,5 2,2 3,4 3,6 1,2 1,5 1,8 0,7 -3,12 -8,16 -5,4 -13,5 -22,5 -6,0 -12,-1 -16,-2 -4,-1 -7,-2 -9,-3l3 -16c3,1 7,2 10,3 4,1 7,1 11,1z"/>
 </g>
</svg>
